<?xml version="1.0" standalone="no"?>
<!DOCTYPE svg PUBLIC "-//W3C//DTD SVG 20010904//EN"
 "http://www.w3.org/TR/2001/REC-SVG-20010904/DTD/svg10.dtd">
<svg version="1.0" xmlns="http://www.w3.org/2000/svg"
 width="284.000000pt" height="284.000000pt" viewBox="0 0 284.000000 284.000000"
 preserveAspectRatio="xMidYMid meet">
<metadata>
Created by potrace 1.14, written by Peter Selinger 2001-2017
</metadata>
<g transform="translate(0.000000,284.000000) scale(0.100000,-0.100000)"
fill="#000000" stroke="none">
<path d="M1735 2160 c-79 -13 -230 -46 -310 -66 -137 -35 -219 -42 -455 -39
-447 5 -397 0 -416 38 -51 101 -154 86 -171 -27 -3 -18 -15 -39 -31 -51 -57
-41 -133 -130 -158 -184 -14 -31 -39 -90 -56 -131 -34 -87 -78 -160 -95 -160
-18 0 -43 -29 -43 -51 0 -10 10 -29 22 -41 11 -11 34 -46 49 -77 30 -59 104
-143 179 -201 174 -135 244 -259 255 -454 2 -28 6 -103 10 -166 4 -63 8 -135
10 -160 3 -39 0 -48 -25 -70 -39 -34 -46 -75 -17 -104 21 -21 30 -22 164 -21
97 1 146 5 156 14 24 19 168 243 236 365 l61 110 127 2 c154 3 365 13 413 19
19 3 55 7 80 10 25 3 53 7 64 8 10 1 20 -5 21 -13 2 -8 8 -51 15 -95 13 -89
14 -100 30 -198 10 -66 10 -69 -15 -98 -14 -17 -25 -37 -25 -45 0 -23 29 -74
43 -75 6 -1 71 -2 142 -4 l130 -1 55 55 c31 31 76 83 100 116 25 33 47 62 51
65 3 3 34 50 68 105 239 381 335 791 257 1097 -69 273 -240 458 -481 524 -89
24 -314 26 -440 4z m332 -44 c144 -13 293 -84 372 -176 11 -14 32 -38 46 -55
40 -47 103 -182 126 -270 13 -52 21 -115 22 -180 1 -91 -9 -231 -18 -246 -2
-3 -7 -21 -10 -40 -10 -59 -45 -171 -88 -278 l-41 -104 -20 24 c-33 38 -87 75
-129 89 -128 41 -298 27 -419 -33 -38 -18 -68 -31 -68 -28 -7 140 -22 193 -50
176 -9 -6 -10 -32 -5 -99 4 -50 7 -95 8 -100 4 -21 -175 -41 -439 -50 l-131
-5 39 42 c69 73 117 188 134 320 12 95 7 232 -11 308 -28 115 -69 218 -189
472 -25 54 -46 101 -46 106 0 4 25 9 56 10 31 1 60 3 63 5 4 3 27 7 51 11 25
3 108 21 185 40 145 34 314 63 400 67 52 3 81 2 162 -6z m-1325 -116 l117 -2
10 -47 c41 -176 27 -358 -40 -531 -44 -116 -97 -197 -184 -286 -66 -67 -144
-124 -169 -124 -3 0 -12 13 -20 29 -18 34 -74 92 -142 147 -91 72 -159 142
-191 196 -44 74 -48 103 -17 143 14 18 47 84 73 147 26 62 56 129 66 147 22
44 98 125 141 152 31 19 35 19 56 5 32 -23 65 -20 89 8 16 18 29 23 57 21 20
-2 90 -4 154 -5z"/>
<path d="M245 1758 c-25 -14 -47 -73 -39 -106 9 -34 90 -149 114 -162 31 -17
67 -11 96 13 23 20 27 31 27 74 -1 28 -8 64 -17 81 -16 31 -91 101 -110 103
-45 6 -56 5 -71 -3z m54 -70 c11 -27 -9 -54 -33 -45 -19 8 -21 53 -3 60 22 10
28 7 36 -15z"/>
<path d="M2610 839 c-49 -123 -173 -350 -247 -451 -27 -37 -32 -51 -24 -65 6
-11 6 -25 0 -35 -16 -28 1 -76 30 -86 14 -5 87 -8 162 -7 180 1 173 -6 165
168 -10 203 -38 418 -63 486 -9 23 -10 23 -23 -10z"/>
<path d="M1135 630 c-8 -3 -48 -61 -89 -130 l-74 -124 28 -41 c20 -27 29 -51
28 -74 -2 -59 18 -67 178 -66 85 0 147 5 159 12 18 10 20 22 19 95 -1 137 -20
306 -35 323 -10 10 -188 14 -214 5z"/>
</g>
</svg>
